<svg width="17" height="17" viewBox="0 0 17 17" fill="none" xmlns="http://www.w3.org/2000/svg">
<path d="M5.33333 1.33331V3.33331" stroke="#7A8699" stroke-width="1.5" stroke-miterlimit="10" stroke-linecap="round" stroke-linejoin="round"/>
<path d="M10.6667 1.33331V3.33331" stroke="#7A8699" stroke-width="1.5" stroke-miterlimit="10" stroke-linecap="round" stroke-linejoin="round"/>
<path d="M14 5.66665V9.08665C13.4067 8.61332 12.6533 8.33331 11.8333 8.33331C11.0133 8.33331 10.2467 8.61996 9.64667 9.10663C8.84 9.73996 8.33333 10.7333 8.33333 11.8333C8.33333 12.4866 8.52001 13.1133 8.84001 13.6333C9.08667 14.04 9.40666 14.3933 9.78666 14.6666H5.33333C3 14.6666 2 13.3333 2 11.3333V5.66665C2 3.66665 3 2.33331 5.33333 2.33331H10.6667C13 2.33331 14 3.66665 14 5.66665Z" stroke="#7A8699" stroke-width="1.5" stroke-miterlimit="10" stroke-linecap="round" stroke-linejoin="round"/>
<path d="M4.66667 7.33331H8.66667" stroke="#7A8699" stroke-width="1.5" stroke-miterlimit="10" stroke-linecap="round" stroke-linejoin="round"/>
<path d="M4.66667 10.6667H6.41334" stroke="#7A8699" stroke-width="1.5" stroke-miterlimit="10" stroke-linecap="round" stroke-linejoin="round"/>
<path d="M15.3333 11.8333C15.3333 12.4866 15.1467 13.1133 14.8267 13.6333C14.64 13.9533 14.4067 14.2333 14.1333 14.46C13.52 15.0066 12.72 15.3333 11.8333 15.3333C11.0667 15.3333 10.36 15.0866 9.78666 14.6666C9.40666 14.3933 9.08667 14.04 8.84 13.6333C8.52 13.1133 8.33333 12.4866 8.33333 11.8333C8.33333 10.7333 8.84 9.73996 9.64666 9.10663C10.2467 8.61996 11.0133 8.33331 11.8333 8.33331C12.6533 8.33331 13.4067 8.61332 14 9.08665C14.8133 9.72665 15.3333 10.72 15.3333 11.8333Z" stroke="#7A8699" stroke-width="1.5" stroke-miterlimit="10" stroke-linecap="round" stroke-linejoin="round"/>
<path d="M11.8333 13.5C11.8333 12.58 12.58 11.8334 13.5 11.8334C12.58 11.8334 11.8333 11.0867 11.8333 10.1667C11.8333 11.0867 11.0867 11.8334 10.1667 11.8334C11.0867 11.8334 11.8333 12.58 11.8333 13.5Z" stroke="#7A8699" stroke-width="1.5" stroke-linecap="round" stroke-linejoin="round"/>
</svg>
