<svg width="20" height="20" viewBox="0 0 20 20" fill="none" xmlns="http://www.w3.org/2000/svg">
<path d="M6.24998 3.33334H13.75C14.2666 3.33334 14.725 3.35001 15.1333 3.40834C17.325 3.65001 17.9166 4.68334 17.9166 7.50001V12.5C17.9166 15.3167 17.325 16.35 15.1333 16.5917C14.725 16.65 14.2666 16.6667 13.75 16.6667H6.24998C5.73331 16.6667 5.27498 16.65 4.86665 16.5917C2.67498 16.35 2.08331 15.3167 2.08331 12.5V7.50001C2.08331 4.68334 2.67498 3.65001 4.86665 3.40834C5.27498 3.35001 5.73331 3.33334 6.24998 3.33334Z" stroke="#5D6B82" stroke-width="1.5" stroke-linecap="round" stroke-linejoin="round"/>
<path d="M11.25 8.33334H14.1667" stroke="#5D6B82" stroke-width="1.5" stroke-linecap="round" stroke-linejoin="round"/>
<path d="M5.83331 12.9167H5.84998H14.1666" stroke="#5D6B82" stroke-width="1.5" stroke-linecap="round" stroke-linejoin="round"/>
<path d="M8.41215 8.33332H8.41964" stroke="#5D6B82" stroke-width="2" stroke-linecap="round" stroke-linejoin="round"/>
<path d="M5.91215 8.33332H5.91964" stroke="#5D6B82" stroke-width="2" stroke-linecap="round" stroke-linejoin="round"/>
</svg>
