<svg width="20" height="20" viewBox="0 0 20 20" fill="none" xmlns="http://www.w3.org/2000/svg">
<path d="M10.3359 12.4981C11.7345 12.4981 12.8682 11.3643 12.8682 9.96583C12.8682 8.56731 11.7345 7.43359 10.3359 7.43359C8.93743 7.43359 7.80371 8.56731 7.80371 9.96583C7.80371 11.3643 8.93743 12.4981 10.3359 12.4981Z" stroke="#5D6B82" stroke-width="1.66667" stroke-miterlimit="10" stroke-linecap="round" stroke-linejoin="round"/>
<path d="M2 10.698V9.21686C2 8.34093 2.71667 7.62426 3.5926 7.62426C5.1215 7.62426 5.74261 6.54129 4.97816 5.21943C4.53224 4.45498 4.80298 3.46757 5.56743 3.03757L7.0167 2.19349C7.68559 1.79534 8.54559 2.03423 8.94374 2.70312L9.0393 2.86238C9.80375 4.18424 11.046 4.18424 11.8104 2.86238L11.906 2.70312C12.3041 2.03423 13.1641 1.81126 13.833 2.19349L15.2823 3.03757C16.0467 3.4835 16.3175 4.45498 15.8716 5.21943C15.1071 6.54129 15.7282 7.62426 17.2571 7.62426C18.1331 7.62426 18.8497 8.34093 18.8497 9.21686V10.698C18.8497 11.5739 18.1331 12.2906 17.2571 12.2906C15.7282 12.2906 15.1071 13.3736 15.8716 14.6954C16.3175 15.4599 16.0467 16.4473 15.2823 16.8773L13.833 17.7214C13.1641 18.1195 12.3041 17.8806 11.906 17.2117L11.8104 17.0525C11.046 15.7306 9.80375 15.7306 9.0393 17.0525L8.94374 17.2117C8.54559 17.8806 7.68559 18.1036 7.0167 17.7214L5.56743 16.8773C4.80298 16.4314 4.53224 15.4599 4.97816 14.6954C5.74261 13.3736 5.1215 12.2906 3.5926 12.2906C2.71667 12.3065 2 11.5898 2 10.698Z" stroke="#5D6B82" stroke-width="1.66667" stroke-miterlimit="10" stroke-linecap="round" stroke-linejoin="round"/>
</svg>
