<svg width="20" height="20" viewBox="0 0 20 20" fill="none" xmlns="http://www.w3.org/2000/svg">
<g clip-path="url(#clip0_2004_372)">
<path d="M7.52085 15.4375V14.25H3.56252C3.1271 14.25 2.73127 14.0758 2.44627 13.7829C2.15335 13.4979 1.97919 13.1021 1.97919 12.6667C1.97919 11.8512 2.61252 11.1704 3.4121 11.0912C3.4596 11.0833 3.5071 11.0833 3.56252 11.0833H15.4375C15.4929 11.0833 15.5404 11.0833 15.5879 11.0912C15.9679 11.1229 16.3004 11.2892 16.5538 11.5504C16.8784 11.8671 17.0525 12.3183 17.0129 12.8092C16.9417 13.6404 16.1896 14.25 15.3504 14.25H11.4792V15.4375C11.4792 16.53 10.5925 17.4167 9.50002 17.4167C8.40752 17.4167 7.52085 16.53 7.52085 15.4375Z" stroke="#5D6B82" stroke-width="1.5" stroke-linecap="round" stroke-linejoin="round"/>
<path d="M15.9679 4.19583L15.5879 11.0912C15.5404 11.0833 15.4929 11.0833 15.4375 11.0833H3.56251C3.50709 11.0833 3.45959 11.0833 3.41209 11.0912L3.03209 4.19583C2.88959 2.79458 3.99001 1.58333 5.39126 1.58333H13.6088C15.01 1.58333 16.1104 2.79458 15.9679 4.19583Z" stroke="#5D6B82" stroke-width="1.5" stroke-linecap="round" stroke-linejoin="round"/>
<path d="M6.32544 1.58333V5.54166" stroke="#5D6B82" stroke-width="1.5" stroke-linecap="round" stroke-linejoin="round"/>
<path d="M9.5 1.58333V3.16666" stroke="#5D6B82" stroke-width="1.5" stroke-linecap="round" stroke-linejoin="round"/>
</g>
<defs>
<clipPath id="clip0_2004_372">
<rect width="19" height="19" fill="white"/>
</clipPath>
</defs>
</svg>
