<svg width="20" height="20" viewBox="0 0 20 20" fill="none" xmlns="http://www.w3.org/2000/svg">
<path d="M14.1667 7.49999C14.1667 10.725 11.3667 13.3333 7.91669 13.3333L7.14169 14.2667L6.68336 14.8167C6.29169 15.2833 5.54168 15.1833 5.28335 14.625L4.16669 12.1666C2.65002 11.1 1.66669 9.40832 1.66669 7.49999C1.66669 4.27499 4.46669 1.66666 7.91669 1.66666C10.4334 1.66666 12.6084 3.05833 13.5834 5.05833C13.9584 5.8 14.1667 6.62499 14.1667 7.49999Z" stroke="#5D6B82" stroke-width="1.5" stroke-linecap="round" stroke-linejoin="round"/>
<path d="M18.3333 10.7167C18.3333 12.625 17.35 14.3167 15.8333 15.3834L14.7167 17.8417C14.4583 18.4 13.7083 18.5084 13.3167 18.0334L12.0833 16.55C10.0667 16.55 8.26666 15.6583 7.14166 14.2667L7.91666 13.3333C11.3667 13.3333 14.1667 10.725 14.1667 7.50001C14.1667 6.62501 13.9583 5.80002 13.5833 5.05835C16.3083 5.68335 18.3333 7.98333 18.3333 10.7167Z" stroke="#5D6B82" stroke-width="1.5" stroke-linecap="round" stroke-linejoin="round"/>
<path d="M5.83331 7.5H9.99998" stroke="#5D6B82" stroke-width="1.5" stroke-linecap="round" stroke-linejoin="round"/>
</svg>
