<svg width="20" height="20" viewBox="0 0 20 20" fill="none" xmlns="http://www.w3.org/2000/svg">
<path d="M10 11.6667H10.8333C11.75 11.6667 12.5 10.9167 12.5 9.99999V1.66666H5C3.75 1.66666 2.65834 2.35831 2.09167 3.37498" stroke="#5D6B82" stroke-width="1.5" stroke-linecap="round" stroke-linejoin="round"/>
<path d="M1.66666 14.1667C1.66666 15.55 2.78332 16.6667 4.16666 16.6667H4.99999C4.99999 15.75 5.74999 15 6.66666 15C7.58332 15 8.33332 15.75 8.33332 16.6667H11.6667C11.6667 15.75 12.4167 15 13.3333 15C14.25 15 15 15.75 15 16.6667H15.8333C17.2167 16.6667 18.3333 15.55 18.3333 14.1667V11.6667H15.8333C15.375 11.6667 15 11.2917 15 10.8333V8.33332C15 7.87499 15.375 7.49999 15.8333 7.49999H16.9083L15.4833 5.00833C15.1833 4.49166 14.6333 4.16666 14.0333 4.16666H12.5V9.99999C12.5 10.9167 11.75 11.6667 10.8333 11.6667H9.99999" stroke="#5D6B82" stroke-width="1.5" stroke-linecap="round" stroke-linejoin="round"/>
<path d="M6.66667 18.3333C7.58714 18.3333 8.33333 17.5871 8.33333 16.6667C8.33333 15.7462 7.58714 15 6.66667 15C5.74619 15 5 15.7462 5 16.6667C5 17.5871 5.74619 18.3333 6.66667 18.3333Z" stroke="#5D6B82" stroke-width="1.5" stroke-linecap="round" stroke-linejoin="round"/>
<path d="M13.3333 18.3333C14.2538 18.3333 15 17.5871 15 16.6667C15 15.7462 14.2538 15 13.3333 15C12.4128 15 11.6667 15.7462 11.6667 16.6667C11.6667 17.5871 12.4128 18.3333 13.3333 18.3333Z" stroke="#5D6B82" stroke-width="1.5" stroke-linecap="round" stroke-linejoin="round"/>
<path d="M18.3333 10V11.6667H15.8333C15.375 11.6667 15 11.2917 15 10.8333V8.33333C15 7.875 15.375 7.5 15.8333 7.5H16.9083L18.3333 10Z" stroke="#5D6B82" stroke-width="1.5" stroke-linecap="round" stroke-linejoin="round"/>
<path d="M1.66666 6.66666H6.66666" stroke="#5D6B82" stroke-width="1.5" stroke-linecap="round" stroke-linejoin="round"/>
<path d="M1.66666 9.16666H4.99999" stroke="#5D6B82" stroke-width="1.5" stroke-linecap="round" stroke-linejoin="round"/>
<path d="M1.66666 11.6667H3.33332" stroke="#5D6B82" stroke-width="1.5" stroke-linecap="round" stroke-linejoin="round"/>
</svg>
