<svg width="20" height="20" viewBox="0 0 20 20" fill="none" xmlns="http://www.w3.org/2000/svg">
<path d="M15.3917 14.025L15.7167 16.6583C15.8 17.35 15.0583 17.8333 14.4667 17.475L10.975 15.4C10.5917 15.4 10.2167 15.375 9.85001 15.325C10.4667 14.6 10.8333 13.6833 10.8333 12.6916C10.8333 10.325 8.78334 8.40834 6.25001 8.40834C5.28334 8.40834 4.39168 8.68332 3.65001 9.16666C3.62501 8.95832 3.61667 8.74998 3.61667 8.53331C3.61667 4.74165 6.90834 1.66666 10.975 1.66666C15.0417 1.66666 18.3333 4.74165 18.3333 8.53331C18.3333 10.7833 17.175 12.775 15.3917 14.025Z" stroke="#5D6B82" stroke-width="1.5" stroke-linecap="round" stroke-linejoin="round"/>
<path d="M10.8333 12.6917C10.8333 13.6833 10.4667 14.6 9.85 15.325C9.025 16.325 7.71666 16.9667 6.24999 16.9667L4.07499 18.2583C3.70832 18.4833 3.24165 18.175 3.29165 17.75L3.49999 16.1083C2.38332 15.3333 1.66666 14.0917 1.66666 12.6917C1.66666 11.225 2.44999 9.93333 3.64999 9.16667C4.39166 8.68333 5.28332 8.40836 6.24999 8.40836C8.78332 8.40836 10.8333 10.325 10.8333 12.6917Z" stroke="#5D6B82" stroke-width="1.5" stroke-linecap="round" stroke-linejoin="round"/>
</svg>
