<svg width="24" height="24" viewBox="0 0 24 24" fill="none" xmlns="http://www.w3.org/2000/svg">
<path d="M12.2375 8.71988L9.44113 12.3226C9.14448 12.7048 9.0118 13.1892 9.07229 13.6692C9.13278 14.1492 9.38148 14.5855 9.76368 14.8822C10.1459 15.1789 10.6303 15.3115 11.1103 15.251C11.5903 15.1905 12.0266 14.9418 12.3233 14.5596L16.2381 9.51586C16.8315 8.75146 17.0968 7.78268 16.9758 6.82264C16.8548 5.8626 16.3574 4.98994 15.593 4.39664C14.8286 3.80333 13.8599 3.53798 12.8998 3.65896C11.9398 3.77994 11.0671 4.27734 10.4738 5.04174L5.9997 10.8061C5.10974 11.9527 4.71172 13.4058 4.89319 14.8459C5.07466 16.286 5.82076 17.595 6.96736 18.4849C8.11395 19.3749 9.56712 19.7729 11.0072 19.5914C12.4472 19.4099 13.7562 18.6638 14.6462 17.5173L20.2388 10.3118" stroke="#7A8699" stroke-width="2" stroke-linecap="round" stroke-linejoin="round"/>
</svg>
