<svg width="20" height="20" viewBox="0 0 20 20" fill="none" xmlns="http://www.w3.org/2000/svg">
<path d="M3.33333 5.00002L8.42333 8.84335L8.425 8.84502C8.99 9.25919 9.2725 9.46669 9.5825 9.54669C9.85632 9.61754 10.1437 9.61754 10.4175 9.54669C10.7275 9.46669 11.0108 9.25919 11.5775 8.84335C11.5775 8.84335 14.8417 6.33835 16.6667 5.00002M2.5 13.1667V6.83335C2.5 5.90002 2.5 5.43335 2.68167 5.07669C2.84167 4.76252 3.09583 4.50835 3.41 4.34835C3.76667 4.16669 4.23333 4.16669 5.16667 4.16669H14.8333C15.7667 4.16669 16.2333 4.16669 16.5892 4.34835C16.9033 4.50835 17.1583 4.76252 17.3183 5.07669C17.5 5.43252 17.5 5.89919 17.5 6.83085V13.17C17.5 14.1017 17.5 14.5667 17.3183 14.9234C17.1582 15.237 16.903 15.4919 16.5892 15.6517C16.2333 15.8334 15.7675 15.8334 14.8358 15.8334H5.16417C4.2325 15.8334 3.76583 15.8334 3.41 15.6517C3.09641 15.4919 2.84145 15.2369 2.68167 14.9234C2.5 14.5667 2.5 14.1 2.5 13.1667Z" stroke="#2437F6" stroke-width="2" stroke-linecap="round" stroke-linejoin="round"/>
</svg>
