<svg width="32" height="37" viewBox="0 0 32 37" fill="none" xmlns="http://www.w3.org/2000/svg">
<g clip-path="url(#clip0_2004_469)">
<path d="M2.28583 0.5H21.7054L31.9992 10.5935V34.2499C31.9992 34.8467 31.7584 35.419 31.3297 35.841C30.901 36.2629 30.3196 36.5 29.7134 36.5H2.28583C1.67959 36.5 1.09818 36.2629 0.669504 35.841C0.240828 35.419 0 34.8467 0 34.2499V2.7501C0 2.15334 0.240828 1.58101 0.669504 1.15904C1.09818 0.737063 1.67959 0.5 2.28583 0.5Z" fill="#E2574C"/>
<path d="M31.9663 10.625H23.9994C23.3932 10.6249 22.8119 10.3878 22.3832 9.96585C21.9546 9.54391 21.7137 8.97167 21.7135 8.37495V0.522461L31.9663 10.625Z" fill="#B53629"/>
<path d="M23.4273 17.5585C23.5857 17.5363 23.7307 17.4586 23.8356 17.3397C23.9404 17.2207 23.9982 17.0685 23.9982 16.911C23.9982 16.7535 23.9404 16.6013 23.8356 16.4824C23.7307 16.3634 23.5857 16.2857 23.4273 16.2636H21.2468C21.1534 16.2655 21.0613 16.2863 20.9764 16.3248C20.8915 16.3632 20.8155 16.4185 20.7532 16.4871C20.6909 16.5557 20.6436 16.6362 20.6143 16.7235C20.585 16.8109 20.5742 16.9033 20.5827 16.9949V22.27C20.5827 22.7403 20.8547 23.0014 21.2228 23.0014C21.5909 23.0014 21.8618 22.7403 21.8618 22.27V20.8223H23.1808C23.2658 20.8218 23.3499 20.804 23.4277 20.7702C23.5055 20.7363 23.5754 20.687 23.633 20.6254C23.6906 20.5637 23.7347 20.4911 23.7625 20.4119C23.7903 20.3328 23.8012 20.2488 23.7946 20.1654C23.8002 20.083 23.7884 20.0004 23.7599 19.9228C23.7315 19.8451 23.6871 19.7741 23.6294 19.7142C23.5718 19.6543 23.5021 19.6068 23.4249 19.5746C23.3477 19.5424 23.2646 19.5263 23.1808 19.5273H21.8618V17.5601L23.4273 17.5585ZM16.057 16.2636H14.4614C14.3631 16.2587 14.2647 16.2741 14.1728 16.3089C14.0808 16.3436 13.9973 16.397 13.9275 16.4654C13.8578 16.5339 13.8034 16.616 13.7678 16.7064C13.7322 16.7968 13.7162 16.8935 13.7209 16.9904V22.2746C13.7182 22.3716 13.7364 22.4681 13.7741 22.5578C13.8118 22.6475 13.8683 22.7283 13.9399 22.7951C14.0115 22.8619 14.0966 22.913 14.1896 22.9453C14.2826 22.9775 14.3815 22.9901 14.4798 22.9822H16.1542C18.1359 22.9822 19.4444 21.6987 19.4444 19.7174C19.4423 17.6226 18.2113 16.2636 16.057 16.2636ZM16.1337 21.6793H15.1615V17.5665H16.0381C17.3649 17.5665 17.942 18.4438 17.942 19.6523C17.9418 20.784 17.3749 21.6793 16.1337 21.6793ZM10.2892 16.2636H8.70852C8.61164 16.2584 8.51479 16.2741 8.42476 16.3097C8.33474 16.3453 8.25371 16.3999 8.18739 16.4696C8.12106 16.5393 8.07104 16.6224 8.04084 16.7132C8.01064 16.8039 8.00099 16.9001 8.01256 16.9949V22.27C8.00276 22.3624 8.01277 22.4557 8.04196 22.544C8.07115 22.6323 8.11885 22.7136 8.18198 22.7825C8.24512 22.8515 8.32226 22.9067 8.40843 22.9444C8.4946 22.9822 8.58787 23.0017 8.68219 23.0017C8.7765 23.0017 8.86977 22.9822 8.95594 22.9444C9.04211 22.9067 9.11926 22.8515 9.18239 22.7825C9.24552 22.7136 9.29322 22.6323 9.32241 22.544C9.3516 22.4557 9.36161 22.3624 9.35181 22.27V20.7297H10.3427C10.6407 20.7393 10.9376 20.688 11.2146 20.5793C11.4916 20.4705 11.7428 20.3066 11.9524 20.0978C12.1619 19.8889 12.3254 19.6397 12.4325 19.3657C12.5396 19.0918 12.5881 18.799 12.5748 18.5057C12.5874 18.2073 12.5368 17.9096 12.4263 17.6314C12.3158 17.3533 12.1477 17.1008 11.9328 16.8899C11.7179 16.6791 11.4608 16.5146 11.1779 16.4067C10.8949 16.2989 10.5923 16.2502 10.2892 16.2636ZM10.2622 19.4925H9.35208V17.5024H10.263C10.5145 17.526 10.748 17.6411 10.9179 17.8251C11.0878 18.009 11.182 18.2488 11.182 18.4975C11.182 18.7461 11.0878 18.9859 10.9179 19.1699C10.748 19.3538 10.5145 19.4689 10.263 19.4925H10.2622Z" fill="white"/>
</g>
<defs>
<clipPath id="clip0_2004_469">
<rect width="32" height="36" fill="white" transform="translate(0 0.5)"/>
</clipPath>
</defs>
</svg>
