<svg width="16" height="16" viewBox="0 0 16 16" fill="none" xmlns="http://www.w3.org/2000/svg">
<path fill-rule="evenodd" clip-rule="evenodd" d="M6.19526 0.861924C6.32029 0.736904 6.48985 0.666664 6.66667 0.666664H12C13.1046 0.666664 14 1.5621 14 2.66666V13.3333C14 14.4379 13.1046 15.3333 12 15.3333H4C2.89543 15.3333 2 14.4379 2 13.3333V5.33333C2 5.15652 2.07024 4.98695 2.19526 4.86192L6.19526 0.861924ZM12 2H7.33333V5.33333C7.33333 5.70152 7.03487 6 6.66667 6H3.33333V13.3333C3.33333 13.7015 3.63181 14 4 14H12C12.3682 14 12.6667 13.7015 12.6667 13.3333V2.66666C12.6667 2.29848 12.3682 2 12 2ZM4.27614 4.66666H6V2.9428L4.27614 4.66666ZM4.66667 8.66666C4.66667 8.29846 4.96515 8 5.33333 8H10.6667C11.0349 8 11.3333 8.29846 11.3333 8.66666C11.3333 9.03486 11.0349 9.33333 10.6667 9.33333H5.33333C4.96515 9.33333 4.66667 9.03486 4.66667 8.66666ZM4.66667 11.3333C4.66667 10.9651 4.96515 10.6667 5.33333 10.6667H10.6667C11.0349 10.6667 11.3333 10.9651 11.3333 11.3333C11.3333 11.7015 11.0349 12 10.6667 12H5.33333C4.96515 12 4.66667 11.7015 4.66667 11.3333Z" fill="#7A8699"/>
</svg>
